<?xml version="1.0" encoding="utf-8"?>

<!-- License Agreement at http://iconmonstr.com/license/ -->

<!DOCTYPE svg PUBLIC "-//W3C//DTD SVG 1.1//EN" "http://www.w3.org/Graphics/SVG/1.1/DTD/svg11.dtd">
<svg version="1.1" xmlns="http://www.w3.org/2000/svg" xmlns:xlink="http://www.w3.org/1999/xlink" x="0px" y="0px"
	 width="512px" height="512px" viewBox="0 0 512 512" enable-background="new 0 0 512 512" xml:space="preserve">
<path id="smiley-scared-icon" d="M256,50C142.229,50,50,142.229,50,256c0,113.771,92.229,206,206,206c113.771,0,206-92.229,206-206
	C462,142.229,369.771,50,256,50z M256,422c-91.74,0-166-74.243-166-166c0-91.741,74.244-166,166-166c91.741,0,166,74.243,166,166
	C422,347.742,347.757,422,256,422z M199.666,181.5c-17.12,0-31,13.88-31,31s13.88,31,31,31c17.121,0,31-13.88,31-31
	S216.787,181.5,199.666,181.5z M316.333,181.5c-17.121,0-31,13.88-31,31s13.879,31,31,31s31-13.88,31-31
	S333.454,181.5,316.333,181.5z M305.156,358.06c-16.631-3.494-32.057-5.192-47.158-5.192c-15.099,0-30.524,1.698-47.158,5.192
	c-20.44,4.295-35.778-4.417-41.494-18.671c-15.729-39.228,26.237-73.017,88.652-73.017c65.085,0,104.266,34.098,88.656,73.028
	C340.984,353.539,325.74,362.381,305.156,358.06z M257.998,321.867c29.71,0,56.23,12.332,59.008,5.135
	c14.763-38.253-132.56-39.839-118.013-0.005C201.53,333.944,228.708,321.867,257.998,321.867z"/>
</svg>
